<svg height="512pt" viewBox="-26 0 512 512" width="512pt" xmlns="http://www.w3.org/2000/svg"><path fill="#007bff" d="m190 409c5.519531 0 10-4.480469 10-10s-4.480469-10-10-10-10 4.480469-10 10 4.480469 10 10 10zm0 0"/><path fill="#007bff" d="m430 166h-50v-156c0-5.523438-4.476562-10-10-10h-280c-5.523438 0-10 4.476562-10 10v156h-50c-16.542969 0-30 13.457031-30 30v80c0 13.035156 8.359375 24.152344 20 28.28125v177.71875c0 16.542969 13.457031 30 30 30h360c16.542969 0 30-13.457031 30-30v-177.71875c11.640625-4.128906 20-15.246094 20-28.28125v-80c0-16.542969-13.457031-30-30-30zm-50 60h20v20h-20zm-280-206h260v226h-260zm-40 226v-20h20v20zm350 246h-360c-5.515625 0-10-4.484375-10-10v-176h380v176c0 5.515625-4.484375 10-10 10zm30-216c0 5.515625-4.484375 10-10 10h-400c-5.515625 0-10-4.484375-10-10v-80c0-5.515625 4.484375-10 10-10h50v20h-30c-5.523438 0-10 4.476562-10 10v40c0 5.523438 4.476562 10 10 10h360c5.523438 0 10-4.476562 10-10v-40c0-5.523438-4.476562-10-10-10h-30v-20h50c5.515625 0 10 4.484375 10 10zm0 0"/><path fill="#007bff" d="m330 349h-200c-5.523438 0-10 4.476562-10 10v80c0 5.523438 4.476562 10 10 10h200c5.523438 0 10-4.476562 10-10v-80c0-5.523438-4.476562-10-10-10zm-10 80h-180v-60h180zm0 0"/><path fill="#007bff" d="m230 409h40c5.523438 0 10-4.476562 10-10s-4.476562-10-10-10h-40c-5.523438 0-10 4.476562-10 10s4.476562 10 10 10zm0 0"/><path fill="#007bff" d="m170 206c5.523438 0 10-4.476562 10-10 0-27.570312 22.429688-50 50-50s50 22.429688 50 50c0 5.523438 4.476562 10 10 10s10-4.476562 10-10c0-38.597656-31.402344-70-70-70s-70 31.402344-70 70c0 5.523438 4.476562 10 10 10zm0 0"/><path fill="#007bff" d="m170 106c5.523438 0 10-4.476562 10-10v-20c0-5.523438-4.476562-10-10-10s-10 4.476562-10 10v20c0 5.523438 4.476562 10 10 10zm0 0"/><path fill="#007bff" d="m290 106c5.523438 0 10-4.476562 10-10v-20c0-5.523438-4.476562-10-10-10s-10 4.476562-10 10v20c0 5.523438 4.476562 10 10 10zm0 0"/></svg>